
<svg version="1.0" xmlns="http://www.w3.org/2000/svg"
 width="512.000000pt" height="400.000000pt" viewBox="0 0 512.000000 512.000000"
 preserveAspectRatio="xMidYMid meet">
<g transform="translate(0.000000,512.000000) scale(0.100000,-0.100000)"
fill="white" stroke="none">
<path d="M1228 3909 c-22 -12 -38 -69 -38 -134 0 -74 -35 -207 -80 -303 -142
-302 -416 -482 -772 -507 l-98 -7 0 -80 0 -81 133 6 c72 3 144 9 159 13 l28 6
0 -91 0 -91 -180 0 c-239 0 -220 20 -220 -240 0 -187 1 -201 20 -220 19 -19
33 -20 520 -20 l500 0 0 -160 c0 -153 -1 -160 -20 -160 -11 0 -28 -8 -39 -19
-24 -24 -181 -495 -181 -544 0 -24 7 -44 20 -57 19 -19 33 -20 460 -20 427 0
441 1 460 20 13 13 20 33 20 57 0 49 -157 520 -181 544 -11 11 -28 19 -39 19
-19 0 -20 7 -20 160 l0 160 880 0 880 0 0 -160 c0 -153 -1 -160 -20 -160 -11
0 -28 -8 -39 -19 -24 -24 -181 -495 -181 -544 0 -24 7 -44 20 -57 19 -19 33
-20 460 -20 427 0 441 1 460 20 13 13 20 33 20 57 0 49 -157 520 -181 544 -11
11 -28 19 -39 19 -19 0 -20 7 -20 160 l0 160 500 0 c487 0 501 1 520 20 19 19
20 33 20 220 0 260 19 240 -220 240 l-180 0 0 91 0 91 28 -6 c15 -4 87 -10
160 -13 l132 -6 0 81 0 80 -97 7 c-296 20 -526 142 -691 366 -86 115 -162 323
-162 444 0 67 -17 122 -40 135 -25 13 -395 13 -420 0 -23 -13 -40 -68 -40
-135 0 -74 -35 -207 -80 -303 -89 -190 -232 -333 -422 -422 -382 -179 -829
-60 -1081 287 -83 113 -157 320 -157 438 0 67 -17 122 -40 135 -25 13 -399 13
-422 -1z m292 -1109 l0 -960 -80 0 -80 0 0 960 0 960 80 0 80 0 0 -960z m2240
0 l0 -960 -80 0 -80 0 0 960 0 960 80 0 80 0 0 -960z m-2560 155 l0 -315 -80
0 -80 0 0 221 0 221 59 64 c33 34 67 76 77 93 10 17 20 31 21 31 2 0 3 -142 3
-315z m604 166 l36 -35 0 -223 0 -223 -80 0 -80 0 0 316 0 316 44 -58 c24 -33
60 -75 80 -93z m1636 -166 l0 -315 -80 0 -80 0 0 221 0 221 59 64 c33 34 67
76 77 93 10 17 20 31 21 31 2 0 3 -142 3 -315z m604 166 l36 -35 0 -223 0
-223 -80 0 -80 0 0 316 0 316 44 -58 c24 -33 60 -75 80 -93z m-3164 -326 l0
-155 -80 0 -80 0 1 118 0 117 72 36 c40 20 75 37 80 38 4 1 7 -69 7 -154z
m1207 115 l72 -35 0 -117 1 -118 -80 0 -80 0 0 156 c0 86 3 154 8 152 4 -1 39
-19 79 -38z m1033 -115 l0 -155 -80 0 -80 0 1 118 0 117 72 36 c40 20 75 37
80 38 4 1 7 -69 7 -154z m1207 115 l72 -35 0 -117 1 -118 -80 0 -80 0 0 156
c0 86 3 154 8 152 4 -1 39 -19 79 -38z m-1904 -105 l57 -7 0 -79 0 -79 -80 0
-80 0 0 91 c0 89 0 91 23 86 12 -3 48 -9 80 -12z m377 -75 l0 -90 -80 0 -80 0
0 79 0 79 68 9 c37 6 73 11 80 12 9 1 12 -23 12 -89z m-1600 -330 l0 -80 -440
0 -440 0 0 80 0 80 440 0 440 0 0 -80z m2240 0 l0 -80 -880 0 -880 0 0 80 0
80 880 0 880 0 0 -80z m1360 0 l0 -80 -440 0 -440 0 0 80 0 80 440 0 440 0 0
-80z m-3136 -867 c27 -82 51 -154 53 -160 4 -10 -55 -13 -277 -13 -222 0 -281
3 -277 13 2 6 26 78 53 160 l48 147 176 0 176 0 48 -147z m2240 0 c27 -82 51
-154 53 -160 4 -10 -55 -13 -277 -13 -222 0 -281 3 -277 13 2 6 26 78 53 160
l48 147 176 0 176 0 48 -147z"/>
</g>
</svg>
